<?xml version="1.0" encoding="utf-8" standalone="no"?>
<!DOCTYPE svg PUBLIC "-//W3C//DTD SVG 1.1//EN"
  "http://www.w3.org/Graphics/SVG/1.1/DTD/svg11.dtd">
<svg xmlns:xlink="http://www.w3.org/1999/xlink" width="349.2pt" height="285.377969pt" viewBox="0 0 349.2 285.377969" xmlns="http://www.w3.org/2000/svg" version="1.1">
 <metadata>
  <rdf:RDF xmlns:dc="http://purl.org/dc/elements/1.1/" xmlns:cc="http://creativecommons.org/ns#" xmlns:rdf="http://www.w3.org/1999/02/22-rdf-syntax-ns#">
   <cc:Work>
    <dc:type rdf:resource="http://purl.org/dc/dcmitype/StillImage"/>
    <dc:format>image/svg+xml</dc:format>
    <dc:creator>
     <cc:Agent>
      <dc:title>Math Wiki figure generator</dc:title>
     </cc:Agent>
    </dc:creator>
   </cc:Work>
  </rdf:RDF>
 </metadata>
 <defs>
  <style type="text/css">*{stroke-linejoin: round; stroke-linecap: butt}</style>
 </defs>
 <g id="figure_1">
  <g id="patch_1">
   <path d="M 0 285.377969 
L 349.2 285.377969 
L 349.2 0 
L 0 0 
z
" style="fill: #ffffff"/>
  </g>
  <g id="axes_1">
   <g id="patch_2">
    <path d="M 19.755 269.807969 
L 329.445 269.807969 
L 329.445 43.817969 
L 19.755 43.817969 
z
" clip-path="url(#p888c2c2117)" style="fill: #e8f0ee; stroke: #284b63; stroke-width: 1.8; stroke-linejoin: miter"/>
   </g>
   <g id="line2d_1">
    <path d="M 49.05 121.240469 
L 60.406281 112.8274 
L 66.715327 108.381429 
L 73.024372 104.227147 
L 78.071608 101.177343 
L 83.118844 98.419005 
L 86.904271 96.565807 
L 90.689698 94.914351 
L 94.475126 93.478138 
L 98.260553 92.268911 
L 102.04598 91.296556 
L 105.831407 90.569024 
L 109.616834 90.092262 
L 113.402261 89.87017 
L 117.187688 89.904562 
L 120.973116 90.195157 
L 124.758543 90.73958 
L 128.54397 91.533379 
L 132.329397 92.570065 
L 136.114824 93.841161 
L 139.900251 95.336274 
L 143.685678 97.043181 
L 147.471106 98.947926 
L 152.518342 101.7682 
L 157.565578 104.871356 
L 162.612814 108.212314 
L 168.921859 112.648707 
L 177.754523 119.16364 
L 192.896231 130.383881 
L 199.205276 134.789616 
L 204.252513 138.097496 
L 209.299749 141.160486 
L 214.346985 143.934089 
L 218.132412 145.799966 
L 221.917839 147.465044 
L 225.703266 148.91571 
L 229.488693 150.140101 
L 233.274121 151.128208 
L 237.059548 151.871952 
L 240.844975 152.365252 
L 244.630402 152.604074 
L 248.415829 152.586467 
L 252.201256 152.312574 
L 255.986683 151.784634 
L 259.772111 151.006963 
L 263.557538 149.985921 
L 267.342965 148.729855 
L 271.128392 147.249035 
L 274.913819 145.555568 
L 278.699246 143.6633 
L 283.746482 140.857989 
L 288.793719 137.767685 
L 293.840955 134.437282 
L 300.15 130.010623 
L 300.15 130.010623 
" clip-path="url(#p888c2c2117)" style="fill: none; stroke: #284b63; stroke-width: 3.2; stroke-linecap: round"/>
   </g>
   <g id="text_1">
    <!-- Town A -->
    <g style="fill: #2b2b2b" transform="translate(27.080078 68.732812) scale(0.11 -0.11)">
     <defs>
      <path id="DejaVuSans-Bold-54" d="M 31 4666 
L 4331 4666 
L 4331 3756 
L 2784 3756 
L 2784 0 
L 1581 0 
L 1581 3756 
L 31 3756 
L 31 4666 
z
" transform="scale(0.015625)"/>
      <path id="DejaVuSans-Bold-6f" d="M 2203 2784 
Q 1831 2784 1636 2517 
Q 1441 2250 1441 1747 
Q 1441 1244 1636 976 
Q 1831 709 2203 709 
Q 2569 709 2762 976 
Q 2956 1244 2956 1747 
Q 2956 2250 2762 2517 
Q 2569 2784 2203 2784 
z
M 2203 3584 
Q 3106 3584 3614 3096 
Q 4122 2609 4122 1747 
Q 4122 884 3614 396 
Q 3106 -91 2203 -91 
Q 1297 -91 786 396 
Q 275 884 275 1747 
Q 275 2609 786 3096 
Q 1297 3584 2203 3584 
z
" transform="scale(0.015625)"/>
      <path id="DejaVuSans-Bold-77" d="M 225 3500 
L 1313 3500 
L 1900 1088 
L 2491 3500 
L 3425 3500 
L 4013 1113 
L 4603 3500 
L 5691 3500 
L 4769 0 
L 3547 0 
L 2956 2406 
L 2369 0 
L 1147 0 
L 225 3500 
z
" transform="scale(0.015625)"/>
      <path id="DejaVuSans-Bold-6e" d="M 4056 2131 
L 4056 0 
L 2931 0 
L 2931 347 
L 2931 1631 
Q 2931 2084 2911 2256 
Q 2891 2428 2841 2509 
Q 2775 2619 2662 2680 
Q 2550 2741 2406 2741 
Q 2056 2741 1856 2470 
Q 1656 2200 1656 1722 
L 1656 0 
L 538 0 
L 538 3500 
L 1656 3500 
L 1656 2988 
Q 1909 3294 2193 3439 
Q 2478 3584 2822 3584 
Q 3428 3584 3742 3212 
Q 4056 2841 4056 2131 
z
" transform="scale(0.015625)"/>
      <path id="DejaVuSans-Bold-20" transform="scale(0.015625)"/>
      <path id="DejaVuSans-Bold-41" d="M 3419 850 
L 1538 850 
L 1241 0 
L 31 0 
L 1759 4666 
L 3194 4666 
L 4922 0 
L 3713 0 
L 3419 850 
z
M 1838 1716 
L 3116 1716 
L 2478 3572 
L 1838 1716 
z
" transform="scale(0.015625)"/>
     </defs>
     <use xlink:href="#DejaVuSans-Bold-54"/>
     <use xlink:href="#DejaVuSans-Bold-6f" transform="translate(54.962891 0)"/>
     <use xlink:href="#DejaVuSans-Bold-77" transform="translate(123.664062 0)"/>
     <use xlink:href="#DejaVuSans-Bold-6e" transform="translate(216.046875 0)"/>
     <use xlink:href="#DejaVuSans-Bold-20" transform="translate(287.238281 0)"/>
     <use xlink:href="#DejaVuSans-Bold-41" transform="translate(322.052734 0)"/>
    </g>
   </g>
   <g id="text_2">
    <!-- Town B -->
    <g style="fill: #2b2b2b" transform="translate(278.244531 179.81875) scale(0.11 -0.11)">
     <defs>
      <path id="DejaVuSans-Bold-42" d="M 2456 2859 
Q 2741 2859 2887 2984 
Q 3034 3109 3034 3353 
Q 3034 3594 2887 3720 
Q 2741 3847 2456 3847 
L 1791 3847 
L 1791 2859 
L 2456 2859 
z
M 2497 819 
Q 2859 819 3042 972 
Q 3225 1125 3225 1434 
Q 3225 1738 3044 1889 
Q 2863 2041 2497 2041 
L 1791 2041 
L 1791 819 
L 2497 819 
z
M 3616 2497 
Q 4003 2384 4215 2081 
Q 4428 1778 4428 1338 
Q 4428 663 3972 331 
Q 3516 0 2584 0 
L 588 0 
L 588 4666 
L 2394 4666 
Q 3366 4666 3802 4372 
Q 4238 4078 4238 3431 
Q 4238 3091 4078 2852 
Q 3919 2613 3616 2497 
z
" transform="scale(0.015625)"/>
     </defs>
     <use xlink:href="#DejaVuSans-Bold-54"/>
     <use xlink:href="#DejaVuSans-Bold-6f" transform="translate(54.962891 0)"/>
     <use xlink:href="#DejaVuSans-Bold-77" transform="translate(123.664062 0)"/>
     <use xlink:href="#DejaVuSans-Bold-6e" transform="translate(216.046875 0)"/>
     <use xlink:href="#DejaVuSans-Bold-20" transform="translate(287.238281 0)"/>
     <use xlink:href="#DejaVuSans-Bold-42" transform="translate(322.052734 0)"/>
    </g>
   </g>
   <g id="line2d_2">
    <path d="M 111.825 246.790469 
L 237.375 246.790469 
" clip-path="url(#p888c2c2117)" style="fill: none; stroke: #555555; stroke-width: 2.4; stroke-linecap: square"/>
   </g>
   <g id="line2d_3">
    <path d="M 111.825 253.067969 
L 111.825 240.512969 
" clip-path="url(#p888c2c2117)" style="fill: none; stroke: #555555; stroke-width: 2.4; stroke-linecap: square"/>
   </g>
   <g id="line2d_4">
    <path d="M 237.375 253.067969 
L 237.375 240.512969 
" clip-path="url(#p888c2c2117)" style="fill: none; stroke: #555555; stroke-width: 2.4; stroke-linecap: square"/>
   </g>
   <g id="text_3">
    <!-- 1 inch = 50 miles -->
    <g style="fill: #2b2b2b" transform="translate(126.315156 234.040312) scale(0.11 -0.11)">
     <defs>
      <path id="DejaVuSans-31" d="M 794 531 
L 1825 531 
L 1825 4091 
L 703 3866 
L 703 4441 
L 1819 4666 
L 2450 4666 
L 2450 531 
L 3481 531 
L 3481 0 
L 794 0 
L 794 531 
z
" transform="scale(0.015625)"/>
      <path id="DejaVuSans-20" transform="scale(0.015625)"/>
      <path id="DejaVuSans-69" d="M 603 3500 
L 1178 3500 
L 1178 0 
L 603 0 
L 603 3500 
z
M 603 4863 
L 1178 4863 
L 1178 4134 
L 603 4134 
L 603 4863 
z
" transform="scale(0.015625)"/>
      <path id="DejaVuSans-6e" d="M 3513 2113 
L 3513 0 
L 2938 0 
L 2938 2094 
Q 2938 2591 2744 2837 
Q 2550 3084 2163 3084 
Q 1697 3084 1428 2787 
Q 1159 2491 1159 1978 
L 1159 0 
L 581 0 
L 581 3500 
L 1159 3500 
L 1159 2956 
Q 1366 3272 1645 3428 
Q 1925 3584 2291 3584 
Q 2894 3584 3203 3211 
Q 3513 2838 3513 2113 
z
" transform="scale(0.015625)"/>
      <path id="DejaVuSans-63" d="M 3122 3366 
L 3122 2828 
Q 2878 2963 2633 3030 
Q 2388 3097 2138 3097 
Q 1578 3097 1268 2742 
Q 959 2388 959 1747 
Q 959 1106 1268 751 
Q 1578 397 2138 397 
Q 2388 397 2633 464 
Q 2878 531 3122 666 
L 3122 134 
Q 2881 22 2623 -34 
Q 2366 -91 2075 -91 
Q 1284 -91 818 406 
Q 353 903 353 1747 
Q 353 2603 823 3093 
Q 1294 3584 2113 3584 
Q 2378 3584 2631 3529 
Q 2884 3475 3122 3366 
z
" transform="scale(0.015625)"/>
      <path id="DejaVuSans-68" d="M 3513 2113 
L 3513 0 
L 2938 0 
L 2938 2094 
Q 2938 2591 2744 2837 
Q 2550 3084 2163 3084 
Q 1697 3084 1428 2787 
Q 1159 2491 1159 1978 
L 1159 0 
L 581 0 
L 581 4863 
L 1159 4863 
L 1159 2956 
Q 1366 3272 1645 3428 
Q 1925 3584 2291 3584 
Q 2894 3584 3203 3211 
Q 3513 2838 3513 2113 
z
" transform="scale(0.015625)"/>
      <path id="DejaVuSans-3d" d="M 678 2906 
L 4684 2906 
L 4684 2381 
L 678 2381 
L 678 2906 
z
M 678 1631 
L 4684 1631 
L 4684 1100 
L 678 1100 
L 678 1631 
z
" transform="scale(0.015625)"/>
      <path id="DejaVuSans-35" d="M 691 4666 
L 3169 4666 
L 3169 4134 
L 1269 4134 
L 1269 2991 
Q 1406 3038 1543 3061 
Q 1681 3084 1819 3084 
Q 2600 3084 3056 2656 
Q 3513 2228 3513 1497 
Q 3513 744 3044 326 
Q 2575 -91 1722 -91 
Q 1428 -91 1123 -41 
Q 819 9 494 109 
L 494 744 
Q 775 591 1075 516 
Q 1375 441 1709 441 
Q 2250 441 2565 725 
Q 2881 1009 2881 1497 
Q 2881 1984 2565 2268 
Q 2250 2553 1709 2553 
Q 1456 2553 1204 2497 
Q 953 2441 691 2322 
L 691 4666 
z
" transform="scale(0.015625)"/>
      <path id="DejaVuSans-30" d="M 2034 4250 
Q 1547 4250 1301 3770 
Q 1056 3291 1056 2328 
Q 1056 1369 1301 889 
Q 1547 409 2034 409 
Q 2525 409 2770 889 
Q 3016 1369 3016 2328 
Q 3016 3291 2770 3770 
Q 2525 4250 2034 4250 
z
M 2034 4750 
Q 2819 4750 3233 4129 
Q 3647 3509 3647 2328 
Q 3647 1150 3233 529 
Q 2819 -91 2034 -91 
Q 1250 -91 836 529 
Q 422 1150 422 2328 
Q 422 3509 836 4129 
Q 1250 4750 2034 4750 
z
" transform="scale(0.015625)"/>
      <path id="DejaVuSans-6d" d="M 3328 2828 
Q 3544 3216 3844 3400 
Q 4144 3584 4550 3584 
Q 5097 3584 5394 3201 
Q 5691 2819 5691 2113 
L 5691 0 
L 5113 0 
L 5113 2094 
Q 5113 2597 4934 2840 
Q 4756 3084 4391 3084 
Q 3944 3084 3684 2787 
Q 3425 2491 3425 1978 
L 3425 0 
L 2847 0 
L 2847 2094 
Q 2847 2600 2669 2842 
Q 2491 3084 2119 3084 
Q 1678 3084 1418 2786 
Q 1159 2488 1159 1978 
L 1159 0 
L 581 0 
L 581 3500 
L 1159 3500 
L 1159 2956 
Q 1356 3278 1631 3431 
Q 1906 3584 2284 3584 
Q 2666 3584 2933 3390 
Q 3200 3197 3328 2828 
z
" transform="scale(0.015625)"/>
      <path id="DejaVuSans-6c" d="M 603 4863 
L 1178 4863 
L 1178 0 
L 603 0 
L 603 4863 
z
" transform="scale(0.015625)"/>
      <path id="DejaVuSans-65" d="M 3597 1894 
L 3597 1613 
L 953 1613 
Q 991 1019 1311 708 
Q 1631 397 2203 397 
Q 2534 397 2845 478 
Q 3156 559 3463 722 
L 3463 178 
Q 3153 47 2828 -22 
Q 2503 -91 2169 -91 
Q 1331 -91 842 396 
Q 353 884 353 1716 
Q 353 2575 817 3079 
Q 1281 3584 2069 3584 
Q 2775 3584 3186 3129 
Q 3597 2675 3597 1894 
z
M 3022 2063 
Q 3016 2534 2758 2815 
Q 2500 3097 2075 3097 
Q 1594 3097 1305 2825 
Q 1016 2553 972 2059 
L 3022 2063 
z
" transform="scale(0.015625)"/>
      <path id="DejaVuSans-73" d="M 2834 3397 
L 2834 2853 
Q 2591 2978 2328 3040 
Q 2066 3103 1784 3103 
Q 1356 3103 1142 2972 
Q 928 2841 928 2578 
Q 928 2378 1081 2264 
Q 1234 2150 1697 2047 
L 1894 2003 
Q 2506 1872 2764 1633 
Q 3022 1394 3022 966 
Q 3022 478 2636 193 
Q 2250 -91 1575 -91 
Q 1294 -91 989 -36 
Q 684 19 347 128 
L 347 722 
Q 666 556 975 473 
Q 1284 391 1588 391 
Q 1994 391 2212 530 
Q 2431 669 2431 922 
Q 2431 1156 2273 1281 
Q 2116 1406 1581 1522 
L 1381 1569 
Q 847 1681 609 1914 
Q 372 2147 372 2553 
Q 372 3047 722 3315 
Q 1072 3584 1716 3584 
Q 2034 3584 2315 3537 
Q 2597 3491 2834 3397 
z
" transform="scale(0.015625)"/>
     </defs>
     <use xlink:href="#DejaVuSans-31"/>
     <use xlink:href="#DejaVuSans-20" transform="translate(63.623047 0)"/>
     <use xlink:href="#DejaVuSans-69" transform="translate(95.410156 0)"/>
     <use xlink:href="#DejaVuSans-6e" transform="translate(123.193359 0)"/>
     <use xlink:href="#DejaVuSans-63" transform="translate(186.572266 0)"/>
     <use xlink:href="#DejaVuSans-68" transform="translate(241.552734 0)"/>
     <use xlink:href="#DejaVuSans-20" transform="translate(304.931641 0)"/>
     <use xlink:href="#DejaVuSans-3d" transform="translate(336.71875 0)"/>
     <use xlink:href="#DejaVuSans-20" transform="translate(420.507812 0)"/>
     <use xlink:href="#DejaVuSans-35" transform="translate(452.294922 0)"/>
     <use xlink:href="#DejaVuSans-30" transform="translate(515.917969 0)"/>
     <use xlink:href="#DejaVuSans-20" transform="translate(579.541016 0)"/>
     <use xlink:href="#DejaVuSans-6d" transform="translate(611.328125 0)"/>
     <use xlink:href="#DejaVuSans-69" transform="translate(708.740234 0)"/>
     <use xlink:href="#DejaVuSans-6c" transform="translate(736.523438 0)"/>
     <use xlink:href="#DejaVuSans-65" transform="translate(764.306641 0)"/>
     <use xlink:href="#DejaVuSans-73" transform="translate(825.830078 0)"/>
    </g>
   </g>
   <g id="text_4">
    <!-- Map scale -->
    <g style="fill: #2b2b2b" transform="translate(142.0675 17.077969) scale(0.13 -0.13)">
     <defs>
      <path id="DejaVuSans-4d" d="M 628 4666 
L 1569 4666 
L 2759 1491 
L 3956 4666 
L 4897 4666 
L 4897 0 
L 4281 0 
L 4281 4097 
L 3078 897 
L 2444 897 
L 1241 4097 
L 1241 0 
L 628 0 
L 628 4666 
z
" transform="scale(0.015625)"/>
      <path id="DejaVuSans-61" d="M 2194 1759 
Q 1497 1759 1228 1600 
Q 959 1441 959 1056 
Q 959 750 1161 570 
Q 1363 391 1709 391 
Q 2188 391 2477 730 
Q 2766 1069 2766 1631 
L 2766 1759 
L 2194 1759 
z
M 3341 1997 
L 3341 0 
L 2766 0 
L 2766 531 
Q 2569 213 2275 61 
Q 1981 -91 1556 -91 
Q 1019 -91 701 211 
Q 384 513 384 1019 
Q 384 1609 779 1909 
Q 1175 2209 1959 2209 
L 2766 2209 
L 2766 2266 
Q 2766 2663 2505 2880 
Q 2244 3097 1772 3097 
Q 1472 3097 1187 3025 
Q 903 2953 641 2809 
L 641 3341 
Q 956 3463 1253 3523 
Q 1550 3584 1831 3584 
Q 2591 3584 2966 3190 
Q 3341 2797 3341 1997 
z
" transform="scale(0.015625)"/>
      <path id="DejaVuSans-70" d="M 1159 525 
L 1159 -1331 
L 581 -1331 
L 581 3500 
L 1159 3500 
L 1159 2969 
Q 1341 3281 1617 3432 
Q 1894 3584 2278 3584 
Q 2916 3584 3314 3078 
Q 3713 2572 3713 1747 
Q 3713 922 3314 415 
Q 2916 -91 2278 -91 
Q 1894 -91 1617 61 
Q 1341 213 1159 525 
z
M 3116 1747 
Q 3116 2381 2855 2742 
Q 2594 3103 2138 3103 
Q 1681 3103 1420 2742 
Q 1159 2381 1159 1747 
Q 1159 1113 1420 752 
Q 1681 391 2138 391 
Q 2594 391 2855 752 
Q 3116 1113 3116 1747 
z
" transform="scale(0.015625)"/>
     </defs>
     <use xlink:href="#DejaVuSans-4d"/>
     <use xlink:href="#DejaVuSans-61" transform="translate(86.279297 0)"/>
     <use xlink:href="#DejaVuSans-70" transform="translate(147.558594 0)"/>
     <use xlink:href="#DejaVuSans-20" transform="translate(211.035156 0)"/>
     <use xlink:href="#DejaVuSans-73" transform="translate(242.822266 0)"/>
     <use xlink:href="#DejaVuSans-63" transform="translate(294.921875 0)"/>
     <use xlink:href="#DejaVuSans-61" transform="translate(349.902344 0)"/>
     <use xlink:href="#DejaVuSans-6c" transform="translate(411.181641 0)"/>
     <use xlink:href="#DejaVuSans-65" transform="translate(438.964844 0)"/>
    </g>
   </g>
   <g id="line2d_5">
    <defs>
     <path id="mf9bca20910" d="M 0 6 
C 1.591219 6 3.117479 5.367802 4.242641 4.242641 
C 5.367802 3.117479 6 1.591219 6 0 
C 6 -1.591219 5.367802 -3.117479 4.242641 -4.242641 
C 3.117479 -5.367802 1.591219 -6 0 -6 
C -1.591219 -6 -3.117479 -5.367802 -4.242641 -4.242641 
C -5.367802 -3.117479 -6 -1.591219 -6 0 
C -6 1.591219 -5.367802 3.117479 -4.242641 4.242641 
C -3.117479 5.367802 -1.591219 6 0 6 
z
" style="stroke: #c44569"/>
    </defs>
    <g clip-path="url(#p888c2c2117)">
     <use xlink:href="#mf9bca20910" x="49.05" y="89.852969" style="fill: #c44569; stroke: #c44569"/>
    </g>
   </g>
   <g id="line2d_6">
    <g clip-path="url(#p888c2c2117)">
     <use xlink:href="#mf9bca20910" x="300.15" y="152.627969" style="fill: #c44569; stroke: #c44569"/>
    </g>
   </g>
  </g>
 </g>
 <defs>
  <clipPath id="p888c2c2117">
   <rect x="7.2" y="27.077969" width="334.8" height="251.1"/>
  </clipPath>
 </defs>
</svg>
